<?xml version="1.0" encoding="utf-8"?>
<!-- Generator: Adobe Illustrator 19.0.0, SVG Export Plug-In . SVG Version: 6.00 Build 0)  -->
<svg version="1.1" id="Capa_1" xmlns="http://www.w3.org/2000/svg" xmlns:xlink="http://www.w3.org/1999/xlink" x="0px" y="0px"
	 viewBox="0 0 595.3 595.3" style="enable-background:new 0 0 595.3 595.3;" xml:space="preserve">
<style type="text/css">
	.st0{fill:#FEECF2;}
	.st1{fill:#DDB7EF;}
	.st2{fill:none;stroke:#DDB7EF;stroke-width:4;stroke-miterlimit:10;}
</style>
<path id="XMLID_6_" class="st0" d="M-0.1,466.4c0,0,19.9,0.2,40.7-16.1c20.8-16.3,97.9-11.8,122.6,39.5s77.2,42.8,116.7,39.6
	c39.6-3.2,136.9-10.6,129.1,67.3c-7.8,78-409.1,46.8-409.1,46.8S-105,546.8-0.1,466.4z"/>
<path id="XMLID_5_" class="st0" d="M124.6-0.2c0,0,3.5,61.1,124.5,49.4s111.6,31.1,123.7,48s55.8,67.9,146.6,17.3
	S627.1,226,627.1,226V-56.3H124.6V-0.2z"/>
<circle id="XMLID_1_" class="st1" cx="181.9" cy="50.6" r="40.4"/>
<path id="XMLID_7_" class="st2" d="M103-0.2c0,0,40.2,84.9,172.1,39.9s231.3,62.3,275,66.2c43.7,3.9,73.9,11.2,104.2-4.3"/>
<path id="XMLID_8_" class="st2" d="M65.8-0.2c0,0,55.3,73.6,173.4,64.5s163.9-21.2,235.7,28.5s84.8,68.3,136.2,74.4"/>
<g id="XMLID_9_">
	<path id="XMLID_28_" class="st1" d="M8.8,529.2c8-0.7,15.4,0.5,22.4,3.6c7.1,3.1,12.9,7.8,17.2,14.4c-0.8-2.3-1.8-4.6-2.5-7
		c-1.4-4.5-2.8-9.1-4.2-13.7c-0.3-0.9-0.6-1.3-1.6-1.2c-14.6,0.7-26-5.2-34.6-16.8c-1.9-2.5-3.3-5.4-4.9-8.1c-0.3-0.5-0.4-1-0.7-1.7
		c17.5-0.9,30.3,6.7,40,20.5c-0.5-2.6-1-5.2-1.5-7.9c-0.6-3.6-1.1-7.2-1.6-10.9c-0.1-0.9-0.4-1.3-1.4-1.5c-19-4-28.9-18.9-31.8-34.6
		c-0.1-0.4-0.1-0.8-0.1-1.4c15.6,3.1,25.9,12.4,32.3,26.6c-0.1-2.6-0.2-5.1-0.2-7.7c0-3.2,0-6.5,0.1-9.7c0-0.8-0.2-1.2-1-1.6
		c-15.4-6.1-23.4-17.9-25.5-34c-0.3-2.1-0.3-4.2-0.4-6.2c0-0.3,0.1-0.5,0.1-1.1c15.4,6.2,23.9,17.8,27.2,33.7
		c0.2-1.7,0.3-3.5,0.6-5.2c1-6.3,2-12.6,3.1-18.9c0.2-1-0.1-1.4-0.9-1.8c-6.8-3.4-12.4-8.2-16.4-14.8c-4.1-6.9-5.8-14.4-5.9-22.4
		c0-2.1,0.1-4.2,0.1-6.7c7.9,4,13.9,9.4,18,16.7c4.1,7.3,5.9,15.2,6.2,23.6c0.1-0.4,0.2-0.7,0.3-1.1c1.8-5.6,3.5-11.2,5.3-16.8
		c0.3-0.8,0.2-1.3-0.5-1.9c-13.6-11.5-17-26.1-12.9-42.9c0.4-1.7,1-3.3,1.6-5.3c13.8,12.4,17.3,27.6,13.7,44.9
		c0.1-0.2,0.3-0.5,0.4-0.7c1.8-3.8,3.6-7.6,5.4-11.4c0.3-0.6,0.4-1.3,0.3-2c-2.6-15.8,2.8-28.5,14.8-38.6c1.9-1.6,4.1-2.9,6.1-4.4
		c0.4-0.3,0.8-0.4,1.5-0.8c0.2,2.5,0.5,4.7,0.5,7c0.1,13.4-5.5,24.2-15.3,33.1c-1.6,1.5-3.5,2.7-5.2,4.1c-0.6,0.5-1.3,1.2-1.6,1.9
		c-1.3,2.8-2.5,5.8-3.8,8.6c-0.2,0.5-0.3,0.9-0.4,1.4c9.7-16.1,24.4-21.4,42.6-20.2c-0.3,0.8-0.4,1.3-0.6,1.7
		c-2.4,4.3-5.3,8.1-9,11.4c-6.5,5.6-14,9.1-22.6,10.1c-3.6,0.4-7.3,0.4-10.9,0.6c-0.4,0-1.1,0.4-1.2,0.7c-3.3,8.9-5.9,17.9-7.9,27.2
		c0,0.1,0.1,0.1,0.2,0.4c4.2-10,11-17.3,20.9-21.5c6.9-2.9,14.1-4,21.8-3.4c-0.3,0.7-0.4,1.2-0.7,1.7c-6,12.2-15.8,19.8-29,22.8
		c-4,0.9-8.2,1-12.4,1.4c-0.8,0.1-1.2,0.1-1.4,1c-1.9,9.6-3,19.3-3.3,29.1c0,0.1,0.1,0.2,0.2,0.6c2.8-9.3,8.2-16.4,16.2-21.5
		c5.6-3.6,11.7-5.8,18.5-7c-0.1,0.8-0.1,1.3-0.3,1.9c-2.9,12.3-9.9,21.4-20.9,27.6c-4,2.2-8.3,3.9-12.8,5c-0.7,0.2-1.1,0.4-1.1,1.2
		c0,10.2,0.9,20.3,2.6,30.4c0,0.1,0.1,0.1,0.3,0.3c1.3-8.9,4.8-16.6,11.3-22.9c6.4-6.2,14.1-9.8,22.9-11.8
		c-1.3,9.3-4.8,17.2-11.1,23.7c-6.3,6.5-14,10.6-22.9,13.1c2.1,11.6,5.3,22.8,9.6,33.8c-0.4-20.4,10.2-33.1,28.4-41.1
		c0.3,9.6-2.1,18-7.4,25.5C66,538,59,543.3,50.6,547c0.2,0.5,0.3,1,0.5,1.4c5.5,14.4,13.5,27.4,22.8,39.6c2.8,3.7,5.4,7.6,8.1,11.5
		c1.7,2.5,3.5,4.8,6,6.5c-0.7-0.3-1.3-0.5-2-0.8c-2.7-1.4-4.6-3.7-6.3-6.1c-5.2-7.2-10.4-14.4-15.6-21.6c-0.6-0.9-1.1-0.7-1.8-0.4
		c-8.7,3.4-17.6,4.1-26.6,1.1c-8-2.6-14.6-7.3-20.2-13.5c-0.2-0.2-0.4-0.5-0.7-1c18.3-6.4,33.7-1.5,47.2,10.9
		c-2.1-3.8-4.3-7.8-6.4-11.8c-1.1-2.2-2.2-4.4-3.2-6.6c-0.5-1.2-1.1-1.6-2.5-1.6c-7.5,0-14.6-1.4-21.4-4.7c-8.5-4.1-14.8-10.5-19-19
		C9.2,530.4,9.1,529.9,8.8,529.2z"/>
	<path id="XMLID_27_" class="st1" d="M68.5,579.1c-8.5-12.5-1.4-39.3,12.9-48.4c2.7,7.3,3.6,14.8,2.1,22.5
		C81.5,563.4,76.2,571.9,68.5,579.1z"/>
</g>
<g id="XMLID_11_">
	<path id="XMLID_13_" class="st1" d="M127.5,523.6c5,3.2,8.8,7.2,11.6,12.2c2.8,5,4.1,10.4,3.6,16.2c0.6-1.8,1-3.5,1.7-5.3
		c1.2-3.3,2.5-6.6,3.7-9.9c0.3-0.7,0.2-1-0.4-1.4c-8.9-6.2-13-14.8-12.8-25.6c0-2.3,0.5-4.6,0.8-7c0-0.4,0.2-0.8,0.4-1.4
		c10.7,7.4,14.8,17.6,14.3,30.1c0.9-1.8,1.7-3.6,2.7-5.3c1.3-2.4,2.6-4.8,4-7.1c0.4-0.6,0.3-1-0.1-1.5c-9.4-11-8.5-24.2-3.1-34.7
		c0.1-0.3,0.3-0.5,0.6-0.9c7.8,8.9,9.7,19,7,30.2c1.1-1.5,2.2-3.1,3.4-4.6c1.5-1.9,2.9-3.8,4.4-5.7c0.4-0.5,0.5-0.8,0.1-1.4
		c-6.3-10.6-5.7-21.1,0.3-31.6c0.8-1.3,1.7-2.6,2.6-3.8c0.1-0.2,0.3-0.3,0.6-0.6c6.3,10.6,6,21.3,0.8,32.1c0.9-0.9,1.8-1.9,2.7-2.8
		c3.4-3.3,6.9-6.5,10.4-9.7c0.6-0.5,0.6-0.9,0.3-1.5c-2.5-5.1-3.6-10.4-3-16.1c0.7-5.9,3.1-11.1,6.7-15.9c0.9-1.2,2-2.5,3.1-3.9
		c2.9,5.9,3.9,11.8,3.1,18c-0.8,6.2-3.4,11.6-7,16.7c0.2-0.2,0.4-0.3,0.7-0.5c3.6-2.5,7.1-5,10.7-7.5c0.5-0.4,0.7-0.7,0.6-1.3
		c-2.8-12.9,1.8-23,11.8-31.1c1-0.8,2.1-1.5,3.4-2.4c2.5,13.6-2.3,24-12.2,32.6c0.2-0.1,0.4-0.2,0.5-0.3c2.8-1.4,5.6-2.8,8.3-4.3
		c0.4-0.2,0.9-0.6,1.1-1c5.6-10.5,14.5-15.5,26.2-16c1.8-0.1,3.7,0.1,5.6,0.2c0.3,0,0.7,0.1,1.2,0.2c-1,1.5-1.8,3-2.9,4.4
		c-6,8-14.2,11.8-24,12.6c-1.6,0.1-3.3,0-4.9,0.1c-0.6,0-1.3,0.1-1.9,0.4c-2.1,1.1-4.1,2.2-6.1,3.4c-0.3,0.2-0.6,0.4-0.9,0.7
		c13-5.1,24-1.6,34.2,7.3c-0.5,0.3-0.8,0.6-1.1,0.7c-3.3,1.4-6.8,2.4-10.4,2.6c-6.4,0.4-12.4-1-17.9-4.2c-2.3-1.4-4.5-3.1-6.7-4.6
		c-0.3-0.2-0.8-0.3-1.1-0.1c-6,3.7-11.6,7.9-16.9,12.5c0,0,0,0.1-0.1,0.3c7-4,14.3-5.2,22-3.2c5.4,1.4,10.1,4,14.4,7.8
		c-0.5,0.3-0.8,0.5-1.2,0.7c-9.1,4.5-18.2,4.5-27.3,0.3c-2.8-1.3-5.3-3.1-7.9-4.8c-0.5-0.3-0.8-0.5-1.3,0
		c-5.4,4.8-10.5,10-15.1,15.6c-0.1,0.1-0.1,0.2-0.2,0.4c5.9-4.2,12.3-5.9,19.3-5.3c4.9,0.4,9.5,1.9,14.1,4.3c-0.4,0.4-0.7,0.7-1,1
		c-7.3,5.9-15.5,8.1-24.8,6.8c-3.4-0.5-6.7-1.4-9.8-2.8c-0.5-0.2-0.8-0.3-1.2,0.2c-4.6,6-8.7,12.4-12.2,19.1c0,0,0,0.1,0,0.3
		c4.8-4.7,10.4-7.6,17-8.4c6.5-0.8,12.7,0.6,18.8,3.4c-4.9,4.9-10.6,7.9-17.3,8.9c-6.7,1-13.1-0.1-19.4-2.6
		c-4,7.8-7.2,15.8-9.6,24.3c9-12.2,21-14.9,35.3-11.4c-4.2,5.7-9.4,9.6-15.9,11.7c-6.5,2-13,1.9-19.6,0.4c-0.1,0.4-0.3,0.7-0.4,1.1
		c-3.3,11-4.4,22.2-4.4,33.6c0,3.5-0.2,6.9-0.4,10.4c-0.1,2.2-0.1,4.4,0.6,6.6c-0.3-0.5-0.6-0.9-0.8-1.4c-0.9-2.1-1-4.3-0.9-6.5
		c0.2-6.6,0.3-13.2,0.6-19.8c0-0.8-0.3-0.9-0.9-1.1c-6.7-1.9-12.2-5.6-16.2-11.4c-3.5-5.1-5.3-10.9-5.8-17.1c0-0.2,0-0.5,0-0.9
		c13.7,4.5,20.5,14.3,22.8,27.8c0.5-3.2,1-6.5,1.6-9.9c0.3-1.8,0.7-3.6,1.1-5.3c0.2-0.9,0.1-1.5-0.7-2.1c-4.4-3.4-8-7.5-10.5-12.4
		c-3.1-6.3-3.9-12.9-2.6-19.8C127.2,524.5,127.4,524.2,127.5,523.6z"/>
	<path id="XMLID_12_" class="st1" d="M140.2,580c0.6-11.2,16.9-23.8,29.5-22.7c-1.7,5.5-4.6,10.4-8.9,14.2
		C154.9,576.6,147.9,579.2,140.2,580z"/>
</g>
</svg>
